PathFileType	4	(X/Y/Z)	31_1_53_p1_0-153_filt_butterworth.trc
DataRate	CameraRate	NumFrames	NumMarkers	Units	OrigDataRate	OrigDataStartFrame	OrigNumFrames
47.0	47.0	5	27	m	47.0	95	153
Frame#	Time	RHip			RKnee			RAnkle			RBigToe			RSmallToe			RHeel			LHip			LKnee			LAnkle			LBigToe			LSmallToe			LHeel			Neck			Head			Nose			RShoulder			RElbow			RWrist			RThumb			RIndex			RPinky			LShoulder			LElbow			LWrist			LThumb			LIndex			LPinky			
		X1	Y1	Z1	X2	Y2	Z2	X3	Y3	Z3	X4	Y4	Z4	X5	Y5	Z5	X6	Y6	Z6	X7	Y7	Z7	X8	Y8	Z8	X9	Y9	Z9	X10	Y10	Z10	X11	Y11	Z11	X12	Y12	Z12	X13	Y13	Z13	X14	Y14	Z14	X15	Y15	Z15	X16	Y16	Z16	X17	Y17	Z17	X18	Y18	Z18	X19	Y19	Z19	X20	Y20	Z20	X21	Y21	Z21	X22	Y22	Z22	X23	Y23	Z23	X24	Y24	Z24	X25	Y25	Z25	X26	Y26	Z26	X27	Y27	Z27	
95	2.021276595744681	0.1732487917918713	0.4746725818148248	0.7779662144191073	0.11550805335802806	0.010908368890508557	0.8261891177947878	0.08871165839761705	-0.4971924491645019	0.9358671215852786	0.06643902218784235	-0.42880531405165984	0.6755347534866575	0.13338000227540234	-0.47973444503537227	0.7452224771462845	0.09005115232177172	-0.5716288469430202	0.9968734023418874	-0.016701214771806718	0.47489820430476404	0.8238364866411222	-0.021754420816412344	0.013351024976464732	0.8305290666096797	-0.05369700586832226	-0.4538307071047969	0.9271730961648474	-0.08075384557298473	-0.41661210324601544	0.6906823097623602	-0.12382172258808538	-0.4386419644115384	0.7537340642693123	-0.028197782859491163	-0.5687546929699374	1.011867852928465	0.13504168682901926	1.1110592269678419	0.8956554008126336	0.151876352706812	1.3678792070952372	0.8917536955189171	0.10890545937091291	1.243345674806924	0.7978259614491922	0.27626009768018694	1.0249523896674653	0.868389046623371	0.29401046785057156	0.808019566798671	0.6774837275734049	0.15695076878257241	1.0371216170825135	0.6160469419627382	0.10283900309113339	1.1278137245564528	0.6685025095590462	0.08997534244593641	1.135784718418674	0.6428389341860233	0.08229142982134237	1.0959020921136937	0.6197389707364123	-0.04297927153185445	1.0366928706167773	0.8973117686642795	-0.10769416027223949	0.7498476544272742	0.8969190953923759	-0.06384032908517584	0.4637616397606149	0.7551430253075222	-0.025932153702307083	0.38080390932262875	0.7256872213904969	-0.041359976314502354	0.3398672083130454	0.7345361005267497	-0.05664777734159876	0.3327149118672398	0.7381525812716906	
96	2.042553191489361	0.17287980386651408	0.4748739180192011	0.7772135013451255	0.11549286282872943	0.011103496141959324	0.8262004198504315	0.08884474315597389	-0.4967126076300042	0.9359544958138546	0.06626780003492386	-0.4288101171074791	0.675514276813535	0.13332565779883723	-0.47976596048401926	0.7452926871827977	0.09004058844081325	-0.5716774384786868	0.9968556304251767	-0.01714424676325374	0.4755565087663428	0.8220059144406415	-0.02201714744016405	0.013341943467559292	0.830551906698747	-0.05369307235798308	-0.4538160313038004	0.9272055266925452	-0.0804575820353606	-0.4158900482679145	0.6896294858250102	-0.123474583821913	-0.43733093927015454	0.7523540757378895	-0.028190363290969175	-0.5684158103869645	1.0119263634257045	0.1352102361967906	1.1121291890674219	0.9001420653163703	0.15288086343911378	1.368246380503989	0.8966697797410548	0.10757487100805364	1.2445767047380858	0.8028374087494715	0.2767864484047383	1.024613144749891	0.8701515932669505	0.2942400218879491	0.8079847823451438	0.6774658517265821	0.15692870787872187	1.0383063522119989	0.6159385778851344	0.103006677334915	1.1283716371515458	0.66704298055857	0.09013750216223493	1.1361828600752086	0.6426037178169556	0.08312747456644903	1.0962119248963906	0.6186944144639849	-0.04277732441669027	1.0368419656840708	0.8974530506978575	-0.10739517088018506	0.7503115192568188	0.8966041133039631	-0.06383995740102823	0.46473915613249694	0.7550093483218883	-0.0265031585133513	0.38088583826463007	0.7245957145537456	-0.04180483342134664	0.34193569699662396	0.7342168305406229	-0.057488591012733924	0.3336922307908565	0.7404056032214534	
97	2.0638297872340425	0.17244282439920688	0.47520126549258895	0.7762174651766878	0.11547146762817131	0.011232891446362303	0.8262070101639042	0.08895082213029709	-0.4963190663559563	0.9360232559102054	0.0660925063850794	-0.42870786764612345	0.6753550401848881	0.13292904098039499	-0.4797301261531285	0.7454022505516344	0.09001239633756235	-0.5717997951658463	0.9968514675231728	-0.017477664170685317	0.47621289335566264	0.8199461897988858	-0.022338398591580436	0.01334225190242555	0.8305600422311759	-0.05368550275349798	-0.4538112198751255	0.9272361969646442	-0.08020377392306205	-0.41526188178910844	0.6887139077200368	-0.1235287024109597	-0.436237712017766	0.7519328516524849	-0.028142788458074056	-0.5682537776946456	1.0120941386929287	0.13509333661245929	1.1132330934081534	0.9040792637960143	0.1529846363238949	1.3687531217181281	0.9007123685458699	0.10627437980825058	1.2454851150233393	0.8068106491739098	0.2770453878554027	1.0241502636660882	0.8725239960634221	0.29433102191979194	0.8079082924542728	0.6786571005944488	0.15688235580532067	1.0393605106196089	0.6158368177973472	0.10273130088195803	1.1286855814301031	0.6657512892043704	0.09011224031861906	1.13671860735424	0.6425655356932628	0.08380038525377093	1.0961421118633405	0.6170848270664041	-0.042467002126106074	1.0362485867007405	0.8982493085873666	-0.10709280680512616	0.7496900097874402	0.8978395264335569	-0.06390007948398517	0.4657963170649628	0.754916573354337	-0.026566346414143256	0.38046136751483384	0.7242919431578112	-0.04195477039609718	0.3440153147572229	0.734043121818327	-0.0582590123867507	0.3346837554982315	0.7425231723643816	
98	2.0851063829787235	0.17206657307885648	0.47561757009371664	0.7751116167946435	0.11546600136718925	0.011272714277813678	0.8262277257275316	0.08900809432015665	-0.4960341284527552	0.9360659235345694	0.06595269389303891	-0.4285067556561546	0.6750686714947575	0.13221469924394136	-0.4795547817068313	0.7454249248378262	0.08998245198366749	-0.5719184392546808	0.9968516312891338	-0.017719832038094022	0.47678814847430995	0.8178250722489537	-0.02272503263934144	0.01336491795945749	0.8305392648880245	-0.0536792995613151	-0.4538042143063583	0.9272504934870839	-0.08006621007030527	-0.4148897270564012	0.688183696268987	-0.12380959160250721	-0.435293822787991	0.7521080212756532	-0.02811854945967032	-0.5681736117432137	1.0121704985504185	0.13466300450740115	1.114202556402923	0.9069546439171106	0.15264656050726313	1.3692007550613567	0.9052658273658983	0.10519125243589275	1.2463582698211362	0.8096467832814993	0.27693987149523114	1.0235990499621144	0.8754203265487119	0.2942171471605905	0.8082986872802452	0.6805688004923193	0.15684068162462145	1.040578790829618	0.6158382702014261	0.10205931905716935	1.1288776694188298	0.6647271166962827	0.08969097275190123	1.1374412496452895	0.6426418585525674	0.08407495534360893	1.096084904180688	0.6154560766746419	-0.042176620575822305	1.0353068078940773	0.8996356221405762	-0.10664723615370068	0.7486948075883945	0.8999813359658331	-0.06392053694546851	0.4667906818088204	0.7548522835297076	-0.02648605915804288	0.37978397160653055	0.7244263860654028	-0.041917607439347665	0.3457876808863306	0.7339765025113927	-0.05886624775383265	0.3356121018339816	0.7442555815575245	
99	2.106382978723404	0.17175602877428675	0.4760495386093103	0.7740495197439669	0.11547502816531252	0.011207870110906015	0.8262634106884856	0.08900324171736955	-0.49586161248061134	0.9360941093679749	0.06587227896028595	-0.4282941229498877	0.6747704542492226	0.13128230082545575	-0.4792280176379561	0.7452633974369772	0.08996562351222975	-0.5719673261416397	0.9968458201725041	-0.017928882232255326	0.47721048278178535	0.8159386954913938	-0.023156658315410167	0.013408052384505487	0.8304914162012509	-0.05367943029974993	-0.4537827369637556	0.9272383043519674	-0.08003055393416614	-0.4147462970334002	0.6880019917393407	-0.12404627820108674	-0.4343237556623109	0.7523599764059506	-0.02814383379448116	-0.5681118309010416	1.0120633302911723	0.13411851452040568	1.1148865935812364	0.9088011352002108	0.1524997197931546	1.36960831981752	0.9104316141112915	0.10452847429207451	1.2473507662351109	0.8113091088747552	0.2765238922796203	1.023066010106076	0.8783300727321274	0.29397239455308216	0.8095154260810846	0.6824851015058143	0.15682998989211375	1.0418827804156796	0.615967141851721	0.10131604479702716	1.1289837622842391	0.6642852159460737	0.08890722383579056	1.1382493724819223	0.642922696231061	0.083847799810545	1.096162219418503	0.6146371613164604	-0.04195170061275538	1.0346338843823732	0.9015825588034596	-0.1060699914579992	0.7479487137415928	0.9022906797544157	-0.06386861724137566	0.4675336905862172	0.7548621685931165	-0.026498287108118086	0.37925102190592186	0.724504625609527	-0.04185663107581596	0.34677889134869266	0.7340033025140915	-0.05921135381319666	0.336331492294495	0.7452469774312283	
